<?xml version="1.0" encoding="UTF-8" standalone="no"?><svg xmlns="http://www.w3.org/2000/svg" xmlns:xlink="http://www.w3.org/1999/xlink" contentScriptType="application/ecmascript" contentStyleType="text/css" height="744px" preserveAspectRatio="none" style="width:2152px;height:744px;" version="1.1" viewBox="0 0 2152 744" width="2152px" zoomAndPan="magnify"><defs><filter height="300%" id="f13yiegtxi0h89" width="300%" x="-1" y="-1"><feGaussianBlur result="blurOut" stdDeviation="2.0"/><feColorMatrix in="blurOut" result="blurOut2" type="matrix" values="0 0 0 0 0 0 0 0 0 0 0 0 0 0 0 0 0 0 .4 0"/><feOffset dx="4.0" dy="4.0" in="blurOut2" result="blurOut3"/><feBlend in="SourceGraphic" in2="blurOut3" mode="normal"/></filter></defs><g><!--MD5=[a244d49664d9d5fd2364163b4dd918a1]
class ButtonController--><rect codeLine="1" fill="#FEFECE" filter="url(#f13yiegtxi0h89)" height="137.6328" id="ButtonController" style="stroke: #A80036; stroke-width: 1.5;" width="165" x="523.5875" y="115"/><ellipse cx="554.7875" cy="131" fill="#ADD1B2" rx="11" ry="11" style="stroke: #A80036; stroke-width: 1.0;"/><path d="M557.1312,126.6719 C556.1937,126.2344 555.6,126.0938 554.725,126.0938 C552.1,126.0938 550.1,128.1719 550.1,130.8906 L550.1,132.0156 C550.1,134.5938 552.2093,136.4844 555.1,136.4844 C556.3187,136.4844 557.475,136.1875 558.225,135.6406 C558.8031,135.2344 559.1312,134.7813 559.1312,134.3906 C559.1312,133.9375 558.7406,133.5469 558.2718,133.5469 C558.0531,133.5469 557.85,133.625 557.6625,133.8125 C557.2093,134.2969 557.2093,134.2969 557.0218,134.3906 C556.6,134.6563 555.9125,134.7813 555.1468,134.7813 C553.1,134.7813 551.8031,133.6875 551.8031,131.9844 L551.8031,130.8906 C551.8031,129.1094 553.0531,127.7969 554.7875,127.7969 C555.3656,127.7969 555.975,127.9531 556.4437,128.2031 C556.9281,128.4844 557.1,128.7031 557.1937,129.1094 C557.2562,129.5156 557.2875,129.6406 557.4281,129.7656 C557.5687,129.9063 557.8031,130.0156 558.0218,130.0156 C558.2875,130.0156 558.5531,129.875 558.725,129.6563 C558.8343,129.5 558.8656,129.3125 558.8656,128.8906 L558.8656,127.4688 C558.8656,127.0313 558.85,126.9063 558.7562,126.75 C558.6,126.4844 558.3187,126.3438 558.0218,126.3438 C557.725,126.3438 557.5218,126.4375 557.3031,126.75 L557.1312,126.6719 Z "/><text fill="#000000" font-family="sans-serif" font-size="12" lengthAdjust="spacingAndGlyphs" textLength="97" x="572.3875" y="135.1543">ButtonController</text><line style="stroke: #A80036; stroke-width: 1.5;" x1="524.5875" x2="687.5875" y1="147" y2="147"/><line style="stroke: #A80036; stroke-width: 1.5;" x1="524.5875" x2="687.5875" y1="155" y2="155"/><text fill="#000000" font-family="sans-serif" font-size="11" lengthAdjust="spacingAndGlyphs" textLength="70" x="529.5875" y="169.2104">Start() : void</text><text fill="#000000" font-family="sans-serif" font-size="11" lengthAdjust="spacingAndGlyphs" textLength="107" x="529.5875" y="182.0151">StartButton() : void</text><text fill="#000000" font-family="sans-serif" font-size="11" lengthAdjust="spacingAndGlyphs" textLength="113" x="529.5875" y="194.8198">StandButton() : void</text><text fill="#000000" font-family="sans-serif" font-size="11" lengthAdjust="spacingAndGlyphs" textLength="110" x="529.5875" y="207.6245">RetryButton() : void</text><text fill="#000000" font-family="sans-serif" font-size="11" lengthAdjust="spacingAndGlyphs" textLength="95" x="529.5875" y="220.4292">HitButton() : void</text><text fill="#000000" font-family="sans-serif" font-size="11" lengthAdjust="spacingAndGlyphs" textLength="153" x="529.5875" y="233.2339">DoubleDownButton() : void</text><text fill="#000000" font-family="sans-serif" font-size="11" lengthAdjust="spacingAndGlyphs" textLength="137" x="529.5875" y="246.0386">SurrenderButton() : void</text><!--MD5=[83b3cf3d23d77c6f1e1b5291a241bc2a]
class MonoBehaviour--><rect fill="#FEFECE" filter="url(#f13yiegtxi0h89)" height="48" id="MonoBehaviour" style="stroke: #A80036; stroke-width: 1.5;" width="125" x="629.5875" y="7"/><ellipse cx="644.5875" cy="23" fill="#ADD1B2" rx="11" ry="11" style="stroke: #A80036; stroke-width: 1.0;"/><path d="M646.9312,18.6719 C645.9937,18.2344 645.4,18.0938 644.525,18.0938 C641.9,18.0938 639.9,20.1719 639.9,22.8906 L639.9,24.0156 C639.9,26.5938 642.0093,28.4844 644.9,28.4844 C646.1187,28.4844 647.275,28.1875 648.025,27.6406 C648.6031,27.2344 648.9312,26.7813 648.9312,26.3906 C648.9312,25.9375 648.5406,25.5469 648.0718,25.5469 C647.8531,25.5469 647.65,25.625 647.4625,25.8125 C647.0093,26.2969 647.0093,26.2969 646.8218,26.3906 C646.4,26.6563 645.7125,26.7813 644.9468,26.7813 C642.9,26.7813 641.6031,25.6875 641.6031,23.9844 L641.6031,22.8906 C641.6031,21.1094 642.8531,19.7969 644.5875,19.7969 C645.1656,19.7969 645.775,19.9531 646.2437,20.2031 C646.7281,20.4844 646.9,20.7031 646.9937,21.1094 C647.0562,21.5156 647.0875,21.6406 647.2281,21.7656 C647.3687,21.9063 647.6031,22.0156 647.8218,22.0156 C648.0875,22.0156 648.3531,21.875 648.525,21.6563 C648.6343,21.5 648.6656,21.3125 648.6656,20.8906 L648.6656,19.4688 C648.6656,19.0313 648.65,18.9063 648.5562,18.75 C648.4,18.4844 648.1187,18.3438 647.8218,18.3438 C647.525,18.3438 647.3218,18.4375 647.1031,18.75 L646.9312,18.6719 Z "/><text fill="#000000" font-family="sans-serif" font-size="12" lengthAdjust="spacingAndGlyphs" textLength="93" x="658.5875" y="27.1543">MonoBehaviour</text><line style="stroke: #A80036; stroke-width: 1.5;" x1="630.5875" x2="753.5875" y1="39" y2="39"/><line style="stroke: #A80036; stroke-width: 1.5;" x1="630.5875" x2="753.5875" y1="47" y2="47"/><!--MD5=[90ba54f54370e77ef24813dec6818fa3]
class Button--><rect fill="#FEFECE" filter="url(#f13yiegtxi0h89)" height="48" id="Button" style="stroke: #A80036; stroke-width: 1.5;" width="70" x="571.0875" y="351.5"/><ellipse cx="586.0875" cy="367.5" fill="#ADD1B2" rx="11" ry="11" style="stroke: #A80036; stroke-width: 1.0;"/><path d="M588.4312,363.1719 C587.4937,362.7344 586.9,362.5938 586.025,362.5938 C583.4,362.5938 581.4,364.6719 581.4,367.3906 L581.4,368.5156 C581.4,371.0938 583.5093,372.9844 586.4,372.9844 C587.6187,372.9844 588.775,372.6875 589.525,372.1406 C590.1031,371.7344 590.4312,371.2813 590.4312,370.8906 C590.4312,370.4375 590.0406,370.0469 589.5718,370.0469 C589.3531,370.0469 589.15,370.125 588.9625,370.3125 C588.5093,370.7969 588.5093,370.7969 588.3218,370.8906 C587.9,371.1563 587.2125,371.2813 586.4468,371.2813 C584.4,371.2813 583.1031,370.1875 583.1031,368.4844 L583.1031,367.3906 C583.1031,365.6094 584.3531,364.2969 586.0875,364.2969 C586.6656,364.2969 587.275,364.4531 587.7437,364.7031 C588.2281,364.9844 588.4,365.2031 588.4937,365.6094 C588.5562,366.0156 588.5875,366.1406 588.7281,366.2656 C588.8687,366.4063 589.1031,366.5156 589.3218,366.5156 C589.5875,366.5156 589.8531,366.375 590.025,366.1563 C590.1343,366 590.1656,365.8125 590.1656,365.3906 L590.1656,363.9688 C590.1656,363.5313 590.15,363.4063 590.0562,363.25 C589.9,362.9844 589.6187,362.8438 589.3218,362.8438 C589.025,362.8438 588.8218,362.9375 588.6031,363.25 L588.4312,363.1719 Z "/><text fill="#000000" font-family="sans-serif" font-size="12" lengthAdjust="spacingAndGlyphs" textLength="38" x="600.0875" y="371.6543">Button</text><line style="stroke: #A80036; stroke-width: 1.5;" x1="572.0875" x2="640.0875" y1="383.5" y2="383.5"/><line style="stroke: #A80036; stroke-width: 1.5;" x1="572.0875" x2="640.0875" y1="391.5" y2="391.5"/><!--MD5=[75876706de08001d90815342dea8caa6]
class GameDirector--><rect codeLine="38" fill="#FEFECE" filter="url(#f13yiegtxi0h89)" height="112.0234" id="GameDirector" style="stroke: #A80036; stroke-width: 1.5;" width="131" x="747.5875" y="319.5"/><ellipse cx="769.3375" cy="335.5" fill="#ADD1B2" rx="11" ry="11" style="stroke: #A80036; stroke-width: 1.0;"/><path d="M771.6812,331.1719 C770.7437,330.7344 770.15,330.5938 769.275,330.5938 C766.65,330.5938 764.65,332.6719 764.65,335.3906 L764.65,336.5156 C764.65,339.0938 766.7593,340.9844 769.65,340.9844 C770.8687,340.9844 772.025,340.6875 772.775,340.1406 C773.3531,339.7344 773.6812,339.2813 773.6812,338.8906 C773.6812,338.4375 773.2906,338.0469 772.8218,338.0469 C772.6031,338.0469 772.4,338.125 772.2125,338.3125 C771.7593,338.7969 771.7593,338.7969 771.5718,338.8906 C771.15,339.1563 770.4625,339.2813 769.6968,339.2813 C767.65,339.2813 766.3531,338.1875 766.3531,336.4844 L766.3531,335.3906 C766.3531,333.6094 767.6031,332.2969 769.3375,332.2969 C769.9156,332.2969 770.525,332.4531 770.9937,332.7031 C771.4781,332.9844 771.65,333.2031 771.7437,333.6094 C771.8062,334.0156 771.8375,334.1406 771.9781,334.2656 C772.1187,334.4063 772.3531,334.5156 772.5718,334.5156 C772.8375,334.5156 773.1031,334.375 773.275,334.1563 C773.3843,334 773.4156,333.8125 773.4156,333.3906 L773.4156,331.9688 C773.4156,331.5313 773.4,331.4063 773.3062,331.25 C773.15,330.9844 772.8687,330.8438 772.5718,330.8438 C772.275,330.8438 772.0718,330.9375 771.8531,331.25 L771.6812,331.1719 Z "/><text fill="#000000" font-family="sans-serif" font-size="12" lengthAdjust="spacingAndGlyphs" textLength="84" x="784.8375" y="339.6543">GameDirector</text><line style="stroke: #A80036; stroke-width: 1.5;" x1="748.5875" x2="877.5875" y1="351.5" y2="351.5"/><line style="stroke: #A80036; stroke-width: 1.5;" x1="748.5875" x2="877.5875" y1="359.5" y2="359.5"/><text fill="#000000" font-family="sans-serif" font-size="11" lengthAdjust="spacingAndGlyphs" textLength="70" x="767.5875" y="373.7104">Start() : void</text><ellipse cx="758.5875" cy="383.3047" fill="#84BE84" rx="3" ry="3" style="stroke: #038048; stroke-width: 1.0;"/><text fill="#000000" font-family="sans-serif" font-size="11" lengthAdjust="spacingAndGlyphs" textLength="105" x="767.5875" y="386.5151">GameStart() : void</text><ellipse cx="758.5875" cy="396.1094" fill="#84BE84" rx="3" ry="3" style="stroke: #038048; stroke-width: 1.0;"/><text fill="#000000" font-family="sans-serif" font-size="11" lengthAdjust="spacingAndGlyphs" textLength="76" x="767.5875" y="399.3198">Stand() : void</text><ellipse cx="758.5875" cy="408.9141" fill="#84BE84" rx="3" ry="3" style="stroke: #038048; stroke-width: 1.0;"/><text fill="#000000" font-family="sans-serif" font-size="11" lengthAdjust="spacingAndGlyphs" textLength="103" x="767.5875" y="412.1245">ResetField() : void</text><ellipse cx="758.5875" cy="421.7188" fill="#84BE84" rx="3" ry="3" style="stroke: #038048; stroke-width: 1.0;"/><text fill="#000000" font-family="sans-serif" font-size="11" lengthAdjust="spacingAndGlyphs" textLength="105" x="767.5875" y="424.9292">Judgement() : void</text><!--MD5=[91b737a0aa6758b352ed748d11ff2125]
class PlayerController--><rect codeLine="53" fill="#FEFECE" filter="url(#f13yiegtxi0h89)" height="99.2188" id="PlayerController" style="stroke: #A80036; stroke-width: 1.5;" width="197" x="527.5875" y="504.5"/><ellipse cx="574.3375" cy="520.5" fill="#ADD1B2" rx="11" ry="11" style="stroke: #A80036; stroke-width: 1.0;"/><path d="M576.6812,516.1719 C575.7437,515.7344 575.15,515.5938 574.275,515.5938 C571.65,515.5938 569.65,517.6719 569.65,520.3906 L569.65,521.5156 C569.65,524.0938 571.7593,525.9844 574.65,525.9844 C575.8687,525.9844 577.025,525.6875 577.775,525.1406 C578.3531,524.7344 578.6812,524.2813 578.6812,523.8906 C578.6812,523.4375 578.2906,523.0469 577.8218,523.0469 C577.6031,523.0469 577.4,523.125 577.2125,523.3125 C576.7593,523.7969 576.7593,523.7969 576.5718,523.8906 C576.15,524.1563 575.4625,524.2813 574.6968,524.2813 C572.65,524.2813 571.3531,523.1875 571.3531,521.4844 L571.3531,520.3906 C571.3531,518.6094 572.6031,517.2969 574.3375,517.2969 C574.9156,517.2969 575.525,517.4531 575.9937,517.7031 C576.4781,517.9844 576.65,518.2031 576.7437,518.6094 C576.8062,519.0156 576.8375,519.1406 576.9781,519.2656 C577.1187,519.4063 577.3531,519.5156 577.5718,519.5156 C577.8375,519.5156 578.1031,519.375 578.275,519.1563 C578.3843,519 578.4156,518.8125 578.4156,518.3906 L578.4156,516.9688 C578.4156,516.5313 578.4,516.4063 578.3062,516.25 C578.15,515.9844 577.8687,515.8438 577.5718,515.8438 C577.275,515.8438 577.0718,515.9375 576.8531,516.25 L576.6812,516.1719 Z "/><text fill="#000000" font-family="sans-serif" font-size="12" lengthAdjust="spacingAndGlyphs" textLength="95" x="594.8375" y="524.6543">PlayerController</text><line style="stroke: #A80036; stroke-width: 1.5;" x1="528.5875" x2="723.5875" y1="536.5" y2="536.5"/><line style="stroke: #A80036; stroke-width: 1.5;" x1="528.5875" x2="723.5875" y1="544.5" y2="544.5"/><ellipse cx="538.5875" cy="555.5" fill="#84BE84" rx="3" ry="3" style="stroke: #038048; stroke-width: 1.0;"/><text fill="#000000" font-family="sans-serif" font-size="11" lengthAdjust="spacingAndGlyphs" textLength="171" x="547.5875" y="558.7104">«override» GameStart() : void</text><ellipse cx="538.5875" cy="568.3047" fill="#84BE84" rx="3" ry="3" style="stroke: #038048; stroke-width: 1.0;"/><text fill="#000000" font-family="sans-serif" font-size="11" lengthAdjust="spacingAndGlyphs" textLength="58" x="547.5875" y="571.5151">Hit() : void</text><ellipse cx="538.5875" cy="581.1094" fill="#84BE84" rx="3" ry="3" style="stroke: #038048; stroke-width: 1.0;"/><text fill="#000000" font-family="sans-serif" font-size="11" lengthAdjust="spacingAndGlyphs" textLength="116" x="547.5875" y="584.3198">DoubleDown() : void</text><ellipse cx="538.5875" cy="593.9141" fill="#84BE84" rx="3" ry="3" style="stroke: #038048; stroke-width: 1.0;"/><text fill="#000000" font-family="sans-serif" font-size="11" lengthAdjust="spacingAndGlyphs" textLength="100" x="547.5875" y="597.1245">Surrender() : void</text><!--MD5=[4e07b929524b3030d75d0286894c67d0]
class DealerController--><rect codeLine="32" fill="#FEFECE" filter="url(#f13yiegtxi0h89)" height="86.4141" id="DealerController" style="stroke: #A80036; stroke-width: 1.5;" width="197" x="7.5875" y="511"/><ellipse cx="52.3375" cy="527" fill="#ADD1B2" rx="11" ry="11" style="stroke: #A80036; stroke-width: 1.0;"/><path d="M54.6812,522.6719 C53.7437,522.2344 53.15,522.0938 52.275,522.0938 C49.65,522.0938 47.65,524.1719 47.65,526.8906 L47.65,528.0156 C47.65,530.5938 49.7593,532.4844 52.65,532.4844 C53.8687,532.4844 55.025,532.1875 55.775,531.6406 C56.3531,531.2344 56.6812,530.7813 56.6812,530.3906 C56.6812,529.9375 56.2906,529.5469 55.8218,529.5469 C55.6031,529.5469 55.4,529.625 55.2125,529.8125 C54.7593,530.2969 54.7593,530.2969 54.5718,530.3906 C54.15,530.6563 53.4625,530.7813 52.6968,530.7813 C50.65,530.7813 49.3531,529.6875 49.3531,527.9844 L49.3531,526.8906 C49.3531,525.1094 50.6031,523.7969 52.3375,523.7969 C52.9156,523.7969 53.525,523.9531 53.9937,524.2031 C54.4781,524.4844 54.65,524.7031 54.7437,525.1094 C54.8062,525.5156 54.8375,525.6406 54.9781,525.7656 C55.1187,525.9063 55.3531,526.0156 55.5718,526.0156 C55.8375,526.0156 56.1031,525.875 56.275,525.6563 C56.3843,525.5 56.4156,525.3125 56.4156,524.8906 L56.4156,523.4688 C56.4156,523.0313 56.4,522.9063 56.3062,522.75 C56.15,522.4844 55.8687,522.3438 55.5718,522.3438 C55.275,522.3438 55.0718,522.4375 54.8531,522.75 L54.6812,522.6719 Z "/><text fill="#000000" font-family="sans-serif" font-size="12" lengthAdjust="spacingAndGlyphs" textLength="99" x="72.8375" y="531.1543">DealerController</text><line style="stroke: #A80036; stroke-width: 1.5;" x1="8.5875" x2="203.5875" y1="543" y2="543"/><line style="stroke: #A80036; stroke-width: 1.5;" x1="8.5875" x2="203.5875" y1="551" y2="551"/><ellipse cx="18.5875" cy="562" fill="#84BE84" rx="3" ry="3" style="stroke: #038048; stroke-width: 1.0;"/><text fill="#000000" font-family="sans-serif" font-size="11" lengthAdjust="spacingAndGlyphs" textLength="171" x="27.5875" y="565.2104">«override» GameStart() : void</text><text fill="#000000" font-family="sans-serif" font-size="11" lengthAdjust="spacingAndGlyphs" textLength="84" x="27.5875" y="578.0151">UpCard() : void</text><ellipse cx="18.5875" cy="587.6094" fill="#84BE84" rx="3" ry="3" style="stroke: #038048; stroke-width: 1.0;"/><text fill="#000000" font-family="sans-serif" font-size="11" lengthAdjust="spacingAndGlyphs" textLength="111" x="27.5875" y="590.8198">DrawDealer() : void</text><!--MD5=[8118db34e8d6b48de67a748ef94de7ea]
class CharacterBase--><rect codeLine="20" fill="#FEFECE" filter="url(#f13yiegtxi0h89)" height="124.8281" id="CharacterBase" style="stroke: #A80036; stroke-width: 1.5;" width="302" x="234.0875" y="313"/><ellipse cx="336.8375" cy="329" fill="#ADD1B2" rx="11" ry="11" style="stroke: #A80036; stroke-width: 1.0;"/><path d="M339.1812,324.6719 C338.2437,324.2344 337.65,324.0938 336.775,324.0938 C334.15,324.0938 332.15,326.1719 332.15,328.8906 L332.15,330.0156 C332.15,332.5938 334.2593,334.4844 337.15,334.4844 C338.3687,334.4844 339.525,334.1875 340.275,333.6406 C340.8531,333.2344 341.1812,332.7813 341.1812,332.3906 C341.1812,331.9375 340.7906,331.5469 340.3218,331.5469 C340.1031,331.5469 339.9,331.625 339.7125,331.8125 C339.2593,332.2969 339.2593,332.2969 339.0718,332.3906 C338.65,332.6563 337.9625,332.7813 337.1968,332.7813 C335.15,332.7813 333.8531,331.6875 333.8531,329.9844 L333.8531,328.8906 C333.8531,327.1094 335.1031,325.7969 336.8375,325.7969 C337.4156,325.7969 338.025,325.9531 338.4937,326.2031 C338.9781,326.4844 339.15,326.7031 339.2437,327.1094 C339.3062,327.5156 339.3375,327.6406 339.4781,327.7656 C339.6187,327.9063 339.8531,328.0156 340.0718,328.0156 C340.3375,328.0156 340.6031,327.875 340.775,327.6563 C340.8843,327.5 340.9156,327.3125 340.9156,326.8906 L340.9156,325.4688 C340.9156,325.0313 340.9,324.9063 340.8062,324.75 C340.65,324.4844 340.3687,324.3438 340.0718,324.3438 C339.775,324.3438 339.5718,324.4375 339.3531,324.75 L339.1812,324.6719 Z "/><text fill="#000000" font-family="sans-serif" font-size="12" lengthAdjust="spacingAndGlyphs" textLength="88" x="357.3375" y="333.1543">CharacterBase</text><line style="stroke: #A80036; stroke-width: 1.5;" x1="235.0875" x2="535.0875" y1="345" y2="345"/><text fill="#000000" font-family="sans-serif" font-size="11" lengthAdjust="spacingAndGlyphs" textLength="85" x="240.0875" y="359.2104">direction : float</text><line style="stroke: #A80036; stroke-width: 1.5;" x1="235.0875" x2="535.0875" y1="365.8047" y2="365.8047"/><ellipse cx="245.0875" cy="376.8047" fill="#84BE84" rx="3" ry="3" style="stroke: #038048; stroke-width: 1.0;"/><text fill="#000000" font-family="sans-serif" font-size="11" lengthAdjust="spacingAndGlyphs" textLength="158" x="254.0875" y="380.0151">«virtual» GameStart() : void</text><ellipse cx="245.0875" cy="389.6094" fill="#84BE84" rx="3" ry="3" style="stroke: #038048; stroke-width: 1.0;"/><text fill="#000000" font-family="sans-serif" font-size="11" lengthAdjust="spacingAndGlyphs" textLength="129" x="254.0875" y="392.8198">ResetCardsInfo() : void</text><text fill="#000000" font-family="sans-serif" font-size="11" lengthAdjust="spacingAndGlyphs" textLength="212" x="254.0875" y="405.6245">CharacterCardSpritesRemove() : void</text><text fill="#000000" font-family="sans-serif" font-size="11" lengthAdjust="spacingAndGlyphs" textLength="276" x="254.0875" y="418.4292">CharacterCardSpritesAdd(cardPos:Vector2) : void</text><text fill="#000000" font-family="sans-serif" font-size="11" lengthAdjust="spacingAndGlyphs" textLength="157" x="254.0875" y="431.2339">CharacterScoreSum() : bool</text><!--MD5=[004b1d6c4ca8aad4ba8b586a335ed4f3]
class Transform--><rect fill="#FEFECE" filter="url(#f13yiegtxi0h89)" height="48" id="Transform" style="stroke: #A80036; stroke-width: 1.5;" width="93" x="399.5875" y="530"/><ellipse cx="414.5875" cy="546" fill="#ADD1B2" rx="11" ry="11" style="stroke: #A80036; stroke-width: 1.0;"/><path d="M416.9312,541.6719 C415.9937,541.2344 415.4,541.0938 414.525,541.0938 C411.9,541.0938 409.9,543.1719 409.9,545.8906 L409.9,547.0156 C409.9,549.5938 412.0093,551.4844 414.9,551.4844 C416.1187,551.4844 417.275,551.1875 418.025,550.6406 C418.6031,550.2344 418.9312,549.7813 418.9312,549.3906 C418.9312,548.9375 418.5406,548.5469 418.0718,548.5469 C417.8531,548.5469 417.65,548.625 417.4625,548.8125 C417.0093,549.2969 417.0093,549.2969 416.8218,549.3906 C416.4,549.6563 415.7125,549.7813 414.9468,549.7813 C412.9,549.7813 411.6031,548.6875 411.6031,546.9844 L411.6031,545.8906 C411.6031,544.1094 412.8531,542.7969 414.5875,542.7969 C415.1656,542.7969 415.775,542.9531 416.2437,543.2031 C416.7281,543.4844 416.9,543.7031 416.9937,544.1094 C417.0562,544.5156 417.0875,544.6406 417.2281,544.7656 C417.3687,544.9063 417.6031,545.0156 417.8218,545.0156 C418.0875,545.0156 418.3531,544.875 418.525,544.6563 C418.6343,544.5 418.6656,544.3125 418.6656,543.8906 L418.6656,542.4688 C418.6656,542.0313 418.65,541.9063 418.5562,541.75 C418.4,541.4844 418.1187,541.3438 417.8218,541.3438 C417.525,541.3438 417.3218,541.4375 417.1031,541.75 L416.9312,541.6719 Z "/><text fill="#000000" font-family="sans-serif" font-size="12" lengthAdjust="spacingAndGlyphs" textLength="61" x="428.5875" y="550.1543">Transform</text><line style="stroke: #A80036; stroke-width: 1.5;" x1="400.5875" x2="491.5875" y1="562" y2="562"/><line style="stroke: #A80036; stroke-width: 1.5;" x1="400.5875" x2="491.5875" y1="570" y2="570"/><!--MD5=[064f7a74fee85463ec1a30143664ee17]
class GameObject--><rect fill="#FEFECE" filter="url(#f13yiegtxi0h89)" height="48" id="GameObject" style="stroke: #A80036; stroke-width: 1.5;" width="107" x="759.5875" y="530"/><ellipse cx="774.5875" cy="546" fill="#ADD1B2" rx="11" ry="11" style="stroke: #A80036; stroke-width: 1.0;"/><path d="M776.9312,541.6719 C775.9937,541.2344 775.4,541.0938 774.525,541.0938 C771.9,541.0938 769.9,543.1719 769.9,545.8906 L769.9,547.0156 C769.9,549.5938 772.0093,551.4844 774.9,551.4844 C776.1187,551.4844 777.275,551.1875 778.025,550.6406 C778.6031,550.2344 778.9312,549.7813 778.9312,549.3906 C778.9312,548.9375 778.5406,548.5469 778.0718,548.5469 C777.8531,548.5469 777.65,548.625 777.4625,548.8125 C777.0093,549.2969 777.0093,549.2969 776.8218,549.3906 C776.4,549.6563 775.7125,549.7813 774.9468,549.7813 C772.9,549.7813 771.6031,548.6875 771.6031,546.9844 L771.6031,545.8906 C771.6031,544.1094 772.8531,542.7969 774.5875,542.7969 C775.1656,542.7969 775.775,542.9531 776.2437,543.2031 C776.7281,543.4844 776.9,543.7031 776.9937,544.1094 C777.0562,544.5156 777.0875,544.6406 777.2281,544.7656 C777.3687,544.9063 777.6031,545.0156 777.8218,545.0156 C778.0875,545.0156 778.3531,544.875 778.525,544.6563 C778.6343,544.5 778.6656,544.3125 778.6656,543.8906 L778.6656,542.4688 C778.6656,542.0313 778.65,541.9063 778.5562,541.75 C778.4,541.4844 778.1187,541.3438 777.8218,541.3438 C777.525,541.3438 777.3218,541.4375 777.1031,541.75 L776.9312,541.6719 Z "/><text fill="#000000" font-family="sans-serif" font-size="12" lengthAdjust="spacingAndGlyphs" textLength="75" x="788.5875" y="550.1543">GameObject</text><line style="stroke: #A80036; stroke-width: 1.5;" x1="760.5875" x2="865.5875" y1="562" y2="562"/><line style="stroke: #A80036; stroke-width: 1.5;" x1="760.5875" x2="865.5875" y1="570" y2="570"/><!--MD5=[4c692257daae7ad370eb005e7785be48]
class SpriteRenderer--><rect fill="#FEFECE" filter="url(#f13yiegtxi0h89)" height="48" id="SpriteRenderer" style="stroke: #A80036; stroke-width: 1.5;" width="124" x="240.0875" y="530"/><ellipse cx="255.0875" cy="546" fill="#ADD1B2" rx="11" ry="11" style="stroke: #A80036; stroke-width: 1.0;"/><path d="M257.4312,541.6719 C256.4937,541.2344 255.9,541.0938 255.025,541.0938 C252.4,541.0938 250.4,543.1719 250.4,545.8906 L250.4,547.0156 C250.4,549.5938 252.5093,551.4844 255.4,551.4844 C256.6187,551.4844 257.775,551.1875 258.525,550.6406 C259.1031,550.2344 259.4312,549.7813 259.4312,549.3906 C259.4312,548.9375 259.0406,548.5469 258.5718,548.5469 C258.3531,548.5469 258.15,548.625 257.9625,548.8125 C257.5093,549.2969 257.5093,549.2969 257.3218,549.3906 C256.9,549.6563 256.2125,549.7813 255.4468,549.7813 C253.4,549.7813 252.1031,548.6875 252.1031,546.9844 L252.1031,545.8906 C252.1031,544.1094 253.3531,542.7969 255.0875,542.7969 C255.6656,542.7969 256.275,542.9531 256.7437,543.2031 C257.2281,543.4844 257.4,543.7031 257.4937,544.1094 C257.5562,544.5156 257.5875,544.6406 257.7281,544.7656 C257.8687,544.9063 258.1031,545.0156 258.3218,545.0156 C258.5875,545.0156 258.8531,544.875 259.025,544.6563 C259.1343,544.5 259.1656,544.3125 259.1656,543.8906 L259.1656,542.4688 C259.1656,542.0313 259.15,541.9063 259.0562,541.75 C258.9,541.4844 258.6187,541.3438 258.3218,541.3438 C258.025,541.3438 257.8218,541.4375 257.6031,541.75 L257.4312,541.6719 Z "/><text fill="#000000" font-family="sans-serif" font-size="12" lengthAdjust="spacingAndGlyphs" textLength="92" x="269.0875" y="550.1543">SpriteRenderer</text><line style="stroke: #A80036; stroke-width: 1.5;" x1="241.0875" x2="363.0875" y1="562" y2="562"/><line style="stroke: #A80036; stroke-width: 1.5;" x1="241.0875" x2="363.0875" y1="570" y2="570"/><!--MD5=[7f53987dbaf3ed5af1809c7ebf38127e]
class TrumpController--><rect codeLine="60" fill="#FEFECE" filter="url(#f13yiegtxi0h89)" height="112.0234" id="TrumpController" style="stroke: #A80036; stroke-width: 1.5;" width="281" x="901.5875" y="498"/><ellipse cx="989.3375" cy="514" fill="#ADD1B2" rx="11" ry="11" style="stroke: #A80036; stroke-width: 1.0;"/><path d="M991.6812,509.6719 C990.7437,509.2344 990.15,509.0938 989.275,509.0938 C986.65,509.0938 984.65,511.1719 984.65,513.8906 L984.65,515.0156 C984.65,517.5938 986.7593,519.4844 989.65,519.4844 C990.8687,519.4844 992.025,519.1875 992.775,518.6406 C993.3531,518.2344 993.6812,517.7813 993.6812,517.3906 C993.6812,516.9375 993.2906,516.5469 992.8218,516.5469 C992.6031,516.5469 992.4,516.625 992.2125,516.8125 C991.7593,517.2969 991.7593,517.2969 991.5718,517.3906 C991.15,517.6563 990.4625,517.7813 989.6968,517.7813 C987.65,517.7813 986.3531,516.6875 986.3531,514.9844 L986.3531,513.8906 C986.3531,512.1094 987.6031,510.7969 989.3375,510.7969 C989.9156,510.7969 990.525,510.9531 990.9937,511.2031 C991.4781,511.4844 991.65,511.7031 991.7437,512.1094 C991.8062,512.5156 991.8375,512.6406 991.9781,512.7656 C992.1187,512.9063 992.3531,513.0156 992.5718,513.0156 C992.8375,513.0156 993.1031,512.875 993.275,512.6563 C993.3843,512.5 993.4156,512.3125 993.4156,511.8906 L993.4156,510.4688 C993.4156,510.0313 993.4,509.9063 993.3062,509.75 C993.15,509.4844 992.8687,509.3438 992.5718,509.3438 C992.275,509.3438 992.0718,509.4375 991.8531,509.75 L991.6812,509.6719 Z "/><text fill="#000000" font-family="sans-serif" font-size="12" lengthAdjust="spacingAndGlyphs" textLength="97" x="1009.8375" y="518.1543">TrumpController</text><line style="stroke: #A80036; stroke-width: 1.5;" x1="902.5875" x2="1181.5875" y1="530" y2="530"/><line style="stroke: #A80036; stroke-width: 1.5;" x1="902.5875" x2="1181.5875" y1="538" y2="538"/><ellipse cx="912.5875" cy="549" fill="#84BE84" rx="3" ry="3" style="stroke: #038048; stroke-width: 1.0;"/><text fill="#000000" font-family="sans-serif" font-size="11" lengthAdjust="spacingAndGlyphs" textLength="129" x="921.5875" y="552.2104">ResetCardsInfo() : void</text><text fill="#000000" font-family="sans-serif" font-size="11" lengthAdjust="spacingAndGlyphs" textLength="114" x="921.5875" y="565.0151">CreateCards() : void</text><text fill="#000000" font-family="sans-serif" font-size="11" lengthAdjust="spacingAndGlyphs" textLength="116" x="921.5875" y="577.8198">ShuffleCards() : void</text><ellipse cx="912.5875" cy="587.4141" fill="#84BE84" rx="3" ry="3" style="stroke: #038048; stroke-width: 1.0;"/><text fill="#000000" font-family="sans-serif" font-size="11" lengthAdjust="spacingAndGlyphs" textLength="100" x="921.5875" y="590.6245">DrawCard() : Card</text><text fill="#000000" font-family="sans-serif" font-size="11" lengthAdjust="spacingAndGlyphs" textLength="255" x="921.5875" y="603.4292">ConvertNumberForBlackjack(card:Card) : void</text><!--MD5=[5e305716458bbdabbd2d7f572ed2bae2]
class Card--><rect codeLine="67" fill="#FEFECE" filter="url(#f13yiegtxi0h89)" height="73.6094" id="Card" style="stroke: #A80036; stroke-width: 1.5;" width="169" x="1482.5875" y="517"/><ellipse cx="1548.8375" cy="533" fill="#ADD1B2" rx="11" ry="11" style="stroke: #A80036; stroke-width: 1.0;"/><path d="M1551.1812,528.6719 C1550.2437,528.2344 1549.65,528.0938 1548.775,528.0938 C1546.15,528.0938 1544.15,530.1719 1544.15,532.8906 L1544.15,534.0156 C1544.15,536.5938 1546.2593,538.4844 1549.15,538.4844 C1550.3687,538.4844 1551.525,538.1875 1552.275,537.6406 C1552.8531,537.2344 1553.1812,536.7813 1553.1812,536.3906 C1553.1812,535.9375 1552.7906,535.5469 1552.3218,535.5469 C1552.1031,535.5469 1551.9,535.625 1551.7125,535.8125 C1551.2593,536.2969 1551.2593,536.2969 1551.0718,536.3906 C1550.65,536.6563 1549.9625,536.7813 1549.1968,536.7813 C1547.15,536.7813 1545.8531,535.6875 1545.8531,533.9844 L1545.8531,532.8906 C1545.8531,531.1094 1547.1031,529.7969 1548.8375,529.7969 C1549.4156,529.7969 1550.025,529.9531 1550.4937,530.2031 C1550.9781,530.4844 1551.15,530.7031 1551.2437,531.1094 C1551.3062,531.5156 1551.3375,531.6406 1551.4781,531.7656 C1551.6187,531.9063 1551.8531,532.0156 1552.0718,532.0156 C1552.3375,532.0156 1552.6031,531.875 1552.775,531.6563 C1552.8843,531.5 1552.9156,531.3125 1552.9156,530.8906 L1552.9156,529.4688 C1552.9156,529.0313 1552.9,528.9063 1552.8062,528.75 C1552.65,528.4844 1552.3687,528.3438 1552.0718,528.3438 C1551.775,528.3438 1551.5718,528.4375 1551.3531,528.75 L1551.1812,528.6719 Z "/><text fill="#000000" font-family="sans-serif" font-size="12" lengthAdjust="spacingAndGlyphs" textLength="28" x="1569.3375" y="537.1543">Card</text><line style="stroke: #A80036; stroke-width: 1.5;" x1="1483.5875" x2="1650.5875" y1="549" y2="549"/><ellipse cx="1493.5875" cy="560" fill="none" rx="3" ry="3" style="stroke: #038048; stroke-width: 1.0;"/><text fill="#000000" font-family="sans-serif" font-size="11" lengthAdjust="spacingAndGlyphs" textLength="143" x="1502.5875" y="563.2104">Number : int «get» «set»</text><ellipse cx="1493.5875" cy="572.8047" fill="none" rx="3" ry="3" style="stroke: #038048; stroke-width: 1.0;"/><text fill="#000000" font-family="sans-serif" font-size="11" lengthAdjust="spacingAndGlyphs" textLength="137" x="1502.5875" y="576.0151">Suit : string «get» «set»</text><line style="stroke: #A80036; stroke-width: 1.5;" x1="1483.5875" x2="1650.5875" y1="582.6094" y2="582.6094"/><!--MD5=[cbc48dd6eb4bcea0f6cc45afb6efad57]
class Hart--><rect codeLine="71" fill="#FEFECE" filter="url(#f13yiegtxi0h89)" height="60.8047" id="Hart" style="stroke: #A80036; stroke-width: 1.5;" width="194" x="1701.0875" y="670"/><ellipse cx="1781.3375" cy="686" fill="#ADD1B2" rx="11" ry="11" style="stroke: #A80036; stroke-width: 1.0;"/><path d="M1783.6812,681.6719 C1782.7437,681.2344 1782.15,681.0938 1781.275,681.0938 C1778.65,681.0938 1776.65,683.1719 1776.65,685.8906 L1776.65,687.0156 C1776.65,689.5938 1778.7593,691.4844 1781.65,691.4844 C1782.8687,691.4844 1784.025,691.1875 1784.775,690.6406 C1785.3531,690.2344 1785.6812,689.7813 1785.6812,689.3906 C1785.6812,688.9375 1785.2906,688.5469 1784.8218,688.5469 C1784.6031,688.5469 1784.4,688.625 1784.2125,688.8125 C1783.7593,689.2969 1783.7593,689.2969 1783.5718,689.3906 C1783.15,689.6563 1782.4625,689.7813 1781.6968,689.7813 C1779.65,689.7813 1778.3531,688.6875 1778.3531,686.9844 L1778.3531,685.8906 C1778.3531,684.1094 1779.6031,682.7969 1781.3375,682.7969 C1781.9156,682.7969 1782.525,682.9531 1782.9937,683.2031 C1783.4781,683.4844 1783.65,683.7031 1783.7437,684.1094 C1783.8062,684.5156 1783.8375,684.6406 1783.9781,684.7656 C1784.1187,684.9063 1784.3531,685.0156 1784.5718,685.0156 C1784.8375,685.0156 1785.1031,684.875 1785.275,684.6563 C1785.3843,684.5 1785.4156,684.3125 1785.4156,683.8906 L1785.4156,682.4688 C1785.4156,682.0313 1785.4,681.9063 1785.3062,681.75 C1785.15,681.4844 1784.8687,681.3438 1784.5718,681.3438 C1784.275,681.3438 1784.0718,681.4375 1783.8531,681.75 L1783.6812,681.6719 Z "/><text fill="#000000" font-family="sans-serif" font-size="12" lengthAdjust="spacingAndGlyphs" textLength="25" x="1801.8375" y="690.1543">Hart</text><line style="stroke: #A80036; stroke-width: 1.5;" x1="1702.0875" x2="1894.0875" y1="702" y2="702"/><line style="stroke: #A80036; stroke-width: 1.5;" x1="1702.0875" x2="1894.0875" y1="710" y2="710"/><ellipse cx="1712.0875" cy="721" fill="#84BE84" rx="3" ry="3" style="stroke: #038048; stroke-width: 1.0;"/><text fill="#000000" font-family="sans-serif" font-size="11" lengthAdjust="spacingAndGlyphs" textLength="168" x="1721.0875" y="724.2104">Hart(sprite:Sprite, number:int)</text><!--MD5=[e07683d003131b9e2f36793e1d14f746]
class Spade--><rect codeLine="74" fill="#FEFECE" filter="url(#f13yiegtxi0h89)" height="60.8047" id="Spade" style="stroke: #A80036; stroke-width: 1.5;" width="208" x="1930.0875" y="670"/><ellipse cx="2010.3375" cy="686" fill="#ADD1B2" rx="11" ry="11" style="stroke: #A80036; stroke-width: 1.0;"/><path d="M2012.6812,681.6719 C2011.7437,681.2344 2011.15,681.0938 2010.275,681.0938 C2007.65,681.0938 2005.65,683.1719 2005.65,685.8906 L2005.65,687.0156 C2005.65,689.5938 2007.7593,691.4844 2010.65,691.4844 C2011.8687,691.4844 2013.025,691.1875 2013.775,690.6406 C2014.3531,690.2344 2014.6812,689.7813 2014.6812,689.3906 C2014.6812,688.9375 2014.2906,688.5469 2013.8218,688.5469 C2013.6031,688.5469 2013.4,688.625 2013.2125,688.8125 C2012.7593,689.2969 2012.7593,689.2969 2012.5718,689.3906 C2012.15,689.6563 2011.4625,689.7813 2010.6968,689.7813 C2008.65,689.7813 2007.3531,688.6875 2007.3531,686.9844 L2007.3531,685.8906 C2007.3531,684.1094 2008.6031,682.7969 2010.3375,682.7969 C2010.9156,682.7969 2011.525,682.9531 2011.9937,683.2031 C2012.4781,683.4844 2012.65,683.7031 2012.7437,684.1094 C2012.8062,684.5156 2012.8375,684.6406 2012.9781,684.7656 C2013.1187,684.9063 2013.3531,685.0156 2013.5718,685.0156 C2013.8375,685.0156 2014.1031,684.875 2014.275,684.6563 C2014.3843,684.5 2014.4156,684.3125 2014.4156,683.8906 L2014.4156,682.4688 C2014.4156,682.0313 2014.4,681.9063 2014.3062,681.75 C2014.15,681.4844 2013.8687,681.3438 2013.5718,681.3438 C2013.275,681.3438 2013.0718,681.4375 2012.8531,681.75 L2012.6812,681.6719 Z "/><text fill="#000000" font-family="sans-serif" font-size="12" lengthAdjust="spacingAndGlyphs" textLength="39" x="2030.8375" y="690.1543">Spade</text><line style="stroke: #A80036; stroke-width: 1.5;" x1="1931.0875" x2="2137.0875" y1="702" y2="702"/><line style="stroke: #A80036; stroke-width: 1.5;" x1="1931.0875" x2="2137.0875" y1="710" y2="710"/><ellipse cx="1941.0875" cy="721" fill="#84BE84" rx="3" ry="3" style="stroke: #038048; stroke-width: 1.0;"/><text fill="#000000" font-family="sans-serif" font-size="11" lengthAdjust="spacingAndGlyphs" textLength="182" x="1950.0875" y="724.2104">Spade(sprite:Sprite, number:int)</text><!--MD5=[16ce863948dc95f4544df1b1da16e99d]
class Clover--><rect codeLine="77" fill="#FEFECE" filter="url(#f13yiegtxi0h89)" height="60.8047" id="Clover" style="stroke: #A80036; stroke-width: 1.5;" width="208" x="1225.0875" y="670"/><ellipse cx="1305.3375" cy="686" fill="#ADD1B2" rx="11" ry="11" style="stroke: #A80036; stroke-width: 1.0;"/><path d="M1307.6812,681.6719 C1306.7437,681.2344 1306.15,681.0938 1305.275,681.0938 C1302.65,681.0938 1300.65,683.1719 1300.65,685.8906 L1300.65,687.0156 C1300.65,689.5938 1302.7593,691.4844 1305.65,691.4844 C1306.8687,691.4844 1308.025,691.1875 1308.775,690.6406 C1309.3531,690.2344 1309.6812,689.7813 1309.6812,689.3906 C1309.6812,688.9375 1309.2906,688.5469 1308.8218,688.5469 C1308.6031,688.5469 1308.4,688.625 1308.2125,688.8125 C1307.7593,689.2969 1307.7593,689.2969 1307.5718,689.3906 C1307.15,689.6563 1306.4625,689.7813 1305.6968,689.7813 C1303.65,689.7813 1302.3531,688.6875 1302.3531,686.9844 L1302.3531,685.8906 C1302.3531,684.1094 1303.6031,682.7969 1305.3375,682.7969 C1305.9156,682.7969 1306.525,682.9531 1306.9937,683.2031 C1307.4781,683.4844 1307.65,683.7031 1307.7437,684.1094 C1307.8062,684.5156 1307.8375,684.6406 1307.9781,684.7656 C1308.1187,684.9063 1308.3531,685.0156 1308.5718,685.0156 C1308.8375,685.0156 1309.1031,684.875 1309.275,684.6563 C1309.3843,684.5 1309.4156,684.3125 1309.4156,683.8906 L1309.4156,682.4688 C1309.4156,682.0313 1309.4,681.9063 1309.3062,681.75 C1309.15,681.4844 1308.8687,681.3438 1308.5718,681.3438 C1308.275,681.3438 1308.0718,681.4375 1307.8531,681.75 L1307.6812,681.6719 Z "/><text fill="#000000" font-family="sans-serif" font-size="12" lengthAdjust="spacingAndGlyphs" textLength="39" x="1325.8375" y="690.1543">Clover</text><line style="stroke: #A80036; stroke-width: 1.5;" x1="1226.0875" x2="1432.0875" y1="702" y2="702"/><line style="stroke: #A80036; stroke-width: 1.5;" x1="1226.0875" x2="1432.0875" y1="710" y2="710"/><ellipse cx="1236.0875" cy="721" fill="#84BE84" rx="3" ry="3" style="stroke: #038048; stroke-width: 1.0;"/><text fill="#000000" font-family="sans-serif" font-size="11" lengthAdjust="spacingAndGlyphs" textLength="182" x="1245.0875" y="724.2104">Clover(sprite:Sprite, number:int)</text><!--MD5=[ad4f6f61815e622a8a4ceb1fc6d6771f]
class Daia--><rect codeLine="80" fill="#FEFECE" filter="url(#f13yiegtxi0h89)" height="60.8047" id="Daia" style="stroke: #A80036; stroke-width: 1.5;" width="197" x="1468.5875" y="670"/><ellipse cx="1549.8375" cy="686" fill="#ADD1B2" rx="11" ry="11" style="stroke: #A80036; stroke-width: 1.0;"/><path d="M1552.1812,681.6719 C1551.2437,681.2344 1550.65,681.0938 1549.775,681.0938 C1547.15,681.0938 1545.15,683.1719 1545.15,685.8906 L1545.15,687.0156 C1545.15,689.5938 1547.2593,691.4844 1550.15,691.4844 C1551.3687,691.4844 1552.525,691.1875 1553.275,690.6406 C1553.8531,690.2344 1554.1812,689.7813 1554.1812,689.3906 C1554.1812,688.9375 1553.7906,688.5469 1553.3218,688.5469 C1553.1031,688.5469 1552.9,688.625 1552.7125,688.8125 C1552.2593,689.2969 1552.2593,689.2969 1552.0718,689.3906 C1551.65,689.6563 1550.9625,689.7813 1550.1968,689.7813 C1548.15,689.7813 1546.8531,688.6875 1546.8531,686.9844 L1546.8531,685.8906 C1546.8531,684.1094 1548.1031,682.7969 1549.8375,682.7969 C1550.4156,682.7969 1551.025,682.9531 1551.4937,683.2031 C1551.9781,683.4844 1552.15,683.7031 1552.2437,684.1094 C1552.3062,684.5156 1552.3375,684.6406 1552.4781,684.7656 C1552.6187,684.9063 1552.8531,685.0156 1553.0718,685.0156 C1553.3375,685.0156 1553.6031,684.875 1553.775,684.6563 C1553.8843,684.5 1553.9156,684.3125 1553.9156,683.8906 L1553.9156,682.4688 C1553.9156,682.0313 1553.9,681.9063 1553.8062,681.75 C1553.65,681.4844 1553.3687,681.3438 1553.0718,681.3438 C1552.775,681.3438 1552.5718,681.4375 1552.3531,681.75 L1552.1812,681.6719 Z "/><text fill="#000000" font-family="sans-serif" font-size="12" lengthAdjust="spacingAndGlyphs" textLength="26" x="1570.3375" y="690.1543">Daia</text><line style="stroke: #A80036; stroke-width: 1.5;" x1="1469.5875" x2="1664.5875" y1="702" y2="702"/><line style="stroke: #A80036; stroke-width: 1.5;" x1="1469.5875" x2="1664.5875" y1="710" y2="710"/><ellipse cx="1479.5875" cy="721" fill="#84BE84" rx="3" ry="3" style="stroke: #038048; stroke-width: 1.0;"/><text fill="#000000" font-family="sans-serif" font-size="11" lengthAdjust="spacingAndGlyphs" textLength="171" x="1488.5875" y="724.2104">Daia(sprite:Sprite, number:int)</text><!--MD5=[e644022de7dea015dd09463c37421447]
class List`1--><rect codeLine="83" fill="#FEFECE" filter="url(#f13yiegtxi0h89)" height="48" id="List`1" style="stroke: #A80036; stroke-width: 1.5;" width="76" x="886.0875" y="676.5"/><ellipse cx="901.0875" cy="692.5" fill="#ADD1B2" rx="11" ry="11" style="stroke: #A80036; stroke-width: 1.0;"/><path d="M903.4312,688.1719 C902.4937,687.7344 901.9,687.5938 901.025,687.5938 C898.4,687.5938 896.4,689.6719 896.4,692.3906 L896.4,693.5156 C896.4,696.0938 898.5093,697.9844 901.4,697.9844 C902.6187,697.9844 903.775,697.6875 904.525,697.1406 C905.1031,696.7344 905.4312,696.2813 905.4312,695.8906 C905.4312,695.4375 905.0406,695.0469 904.5718,695.0469 C904.3531,695.0469 904.15,695.125 903.9625,695.3125 C903.5093,695.7969 903.5093,695.7969 903.3218,695.8906 C902.9,696.1563 902.2125,696.2813 901.4468,696.2813 C899.4,696.2813 898.1031,695.1875 898.1031,693.4844 L898.1031,692.3906 C898.1031,690.6094 899.3531,689.2969 901.0875,689.2969 C901.6656,689.2969 902.275,689.4531 902.7437,689.7031 C903.2281,689.9844 903.4,690.2031 903.4937,690.6094 C903.5562,691.0156 903.5875,691.1406 903.7281,691.2656 C903.8687,691.4063 904.1031,691.5156 904.3218,691.5156 C904.5875,691.5156 904.8531,691.375 905.025,691.1563 C905.1343,691 905.1656,690.8125 905.1656,690.3906 L905.1656,688.9688 C905.1656,688.5313 905.15,688.4063 905.0562,688.25 C904.9,687.9844 904.6187,687.8438 904.3218,687.8438 C904.025,687.8438 903.8218,687.9375 903.6031,688.25 L903.4312,688.1719 Z "/><text fill="#000000" font-family="sans-serif" font-size="12" lengthAdjust="spacingAndGlyphs" textLength="33" x="915.0875" y="696.6543">List`1</text><rect fill="#FFFFFF" height="15.9688" style="stroke: #000000; stroke-width: 1.0; stroke-dasharray: 2.0,2.0;" width="9" x="956.0875" y="673.5"/><text fill="#000000" font-family="sans-serif" font-size="12" font-style="italic" lengthAdjust="spacingAndGlyphs" textLength="7" x="957.0875" y="685.6387">T</text><line style="stroke: #A80036; stroke-width: 1.5;" x1="887.0875" x2="961.0875" y1="708.5" y2="708.5"/><line style="stroke: #A80036; stroke-width: 1.5;" x1="887.0875" x2="961.0875" y1="716.5" y2="716.5"/><!--MD5=[500abf91d043834fcdd772523ff9273e]
class Stack`1--><rect codeLine="85" fill="#FEFECE" filter="url(#f13yiegtxi0h89)" height="48" id="Stack`1" style="stroke: #A80036; stroke-width: 1.5;" width="89" x="997.5875" y="676.5"/><ellipse cx="1012.5875" cy="692.5" fill="#ADD1B2" rx="11" ry="11" style="stroke: #A80036; stroke-width: 1.0;"/><path d="M1014.9312,688.1719 C1013.9937,687.7344 1013.4,687.5938 1012.525,687.5938 C1009.9,687.5938 1007.9,689.6719 1007.9,692.3906 L1007.9,693.5156 C1007.9,696.0938 1010.0093,697.9844 1012.9,697.9844 C1014.1187,697.9844 1015.275,697.6875 1016.025,697.1406 C1016.6031,696.7344 1016.9312,696.2813 1016.9312,695.8906 C1016.9312,695.4375 1016.5406,695.0469 1016.0718,695.0469 C1015.8531,695.0469 1015.65,695.125 1015.4625,695.3125 C1015.0093,695.7969 1015.0093,695.7969 1014.8218,695.8906 C1014.4,696.1563 1013.7125,696.2813 1012.9468,696.2813 C1010.9,696.2813 1009.6031,695.1875 1009.6031,693.4844 L1009.6031,692.3906 C1009.6031,690.6094 1010.8531,689.2969 1012.5875,689.2969 C1013.1656,689.2969 1013.775,689.4531 1014.2437,689.7031 C1014.7281,689.9844 1014.9,690.2031 1014.9937,690.6094 C1015.0562,691.0156 1015.0875,691.1406 1015.2281,691.2656 C1015.3687,691.4063 1015.6031,691.5156 1015.8218,691.5156 C1016.0875,691.5156 1016.3531,691.375 1016.525,691.1563 C1016.6343,691 1016.6656,690.8125 1016.6656,690.3906 L1016.6656,688.9688 C1016.6656,688.5313 1016.65,688.4063 1016.5562,688.25 C1016.4,687.9844 1016.1187,687.8438 1015.8218,687.8438 C1015.525,687.8438 1015.3218,687.9375 1015.1031,688.25 L1014.9312,688.1719 Z "/><text fill="#000000" font-family="sans-serif" font-size="12" lengthAdjust="spacingAndGlyphs" textLength="46" x="1026.5875" y="696.6543">Stack`1</text><rect fill="#FFFFFF" height="15.9688" style="stroke: #000000; stroke-width: 1.0; stroke-dasharray: 2.0,2.0;" width="9" x="1080.5875" y="673.5"/><text fill="#000000" font-family="sans-serif" font-size="12" font-style="italic" lengthAdjust="spacingAndGlyphs" textLength="7" x="1081.5875" y="685.6387">T</text><line style="stroke: #A80036; stroke-width: 1.5;" x1="998.5875" x2="1085.5875" y1="708.5" y2="708.5"/><line style="stroke: #A80036; stroke-width: 1.5;" x1="998.5875" x2="1085.5875" y1="716.5" y2="716.5"/><!--MD5=[85c2ed8dbf494cb60783de624603a7dd]
class Sprite--><rect fill="#FEFECE" filter="url(#f13yiegtxi0h89)" height="48" id="Sprite" style="stroke: #A80036; stroke-width: 1.5;" width="68" x="1122.0875" y="676.5"/><ellipse cx="1137.0875" cy="692.5" fill="#ADD1B2" rx="11" ry="11" style="stroke: #A80036; stroke-width: 1.0;"/><path d="M1139.4312,688.1719 C1138.4937,687.7344 1137.9,687.5938 1137.025,687.5938 C1134.4,687.5938 1132.4,689.6719 1132.4,692.3906 L1132.4,693.5156 C1132.4,696.0938 1134.5093,697.9844 1137.4,697.9844 C1138.6187,697.9844 1139.775,697.6875 1140.525,697.1406 C1141.1031,696.7344 1141.4312,696.2813 1141.4312,695.8906 C1141.4312,695.4375 1141.0406,695.0469 1140.5718,695.0469 C1140.3531,695.0469 1140.15,695.125 1139.9625,695.3125 C1139.5093,695.7969 1139.5093,695.7969 1139.3218,695.8906 C1138.9,696.1563 1138.2125,696.2813 1137.4468,696.2813 C1135.4,696.2813 1134.1031,695.1875 1134.1031,693.4844 L1134.1031,692.3906 C1134.1031,690.6094 1135.3531,689.2969 1137.0875,689.2969 C1137.6656,689.2969 1138.275,689.4531 1138.7437,689.7031 C1139.2281,689.9844 1139.4,690.2031 1139.4937,690.6094 C1139.5562,691.0156 1139.5875,691.1406 1139.7281,691.2656 C1139.8687,691.4063 1140.1031,691.5156 1140.3218,691.5156 C1140.5875,691.5156 1140.8531,691.375 1141.025,691.1563 C1141.1343,691 1141.1656,690.8125 1141.1656,690.3906 L1141.1656,688.9688 C1141.1656,688.5313 1141.15,688.4063 1141.0562,688.25 C1140.9,687.9844 1140.6187,687.8438 1140.3218,687.8438 C1140.025,687.8438 1139.8218,687.9375 1139.6031,688.25 L1139.4312,688.1719 Z "/><text fill="#000000" font-family="sans-serif" font-size="12" lengthAdjust="spacingAndGlyphs" textLength="36" x="1151.0875" y="696.6543">Sprite</text><line style="stroke: #A80036; stroke-width: 1.5;" x1="1123.0875" x2="1189.0875" y1="708.5" y2="708.5"/><line style="stroke: #A80036; stroke-width: 1.5;" x1="1123.0875" x2="1189.0875" y1="716.5" y2="716.5"/><!--MD5=[153d44a21c12cc962de8f16882696b59]
reverse link MonoBehaviour to ButtonController--><path codeLine="10" d="M668.8445,72.81 C661.4405,85.811 653.0365,100.566 644.8405,114.956 " fill="none" id="MonoBehaviour-backto-ButtonController" style="stroke: #A80036; stroke-width: 1.0;"/><polygon fill="none" points="662.8575,69.178,678.8385,55.263,675.0235,76.106,662.8575,69.178" style="stroke: #A80036; stroke-width: 1.0;"/><!--MD5=[57841ce255363ee94bba8067b16d31bd]
link ButtonController to Button--><path codeLine="11" d="M543.1795,253.146 C536.3825,290.816 544.3795,334.59 567.1715,357.893 " fill="none" id="ButtonController-to-Button" style="stroke: #A80036; stroke-width: 1.0;"/><polygon fill="#A80036" points="570.9565,361.453,567.1421,352.3728,567.3147,358.027,561.6605,358.1996,570.9565,361.453" style="stroke: #A80036; stroke-width: 1.0;"/><text fill="#000000" font-family="sans-serif" font-size="13" lengthAdjust="spacingAndGlyphs" textLength="72" x="543.5718" y="347.4148">startButton</text><!--MD5=[57841ce255363ee94bba8067b16d31bd]
link ButtonController to Button--><path codeLine="12" d="M568.4875,253.146 C565.0115,285.377 568.0085,322.077 577.4795,346.599 " fill="none" id="ButtonController-to-Button-1" style="stroke: #A80036; stroke-width: 1.0;"/><polygon fill="#A80036" points="579.4605,351.336,579.6804,341.4896,577.5323,346.7227,572.2992,344.5746,579.4605,351.336" style="stroke: #A80036; stroke-width: 1.0;"/><text fill="#000000" font-family="sans-serif" font-size="13" lengthAdjust="spacingAndGlyphs" textLength="78" x="582.631" y="340.306">standButton</text><!--MD5=[57841ce255363ee94bba8067b16d31bd]
link ButtonController to Button--><path codeLine="13" d="M593.7955,253.146 C592.6635,285.242 593.6305,321.771 596.6965,346.292 " fill="none" id="ButtonController-to-Button-2" style="stroke: #A80036; stroke-width: 1.0;"/><polygon fill="#A80036" points="597.3825,351.336,600.1322,341.8788,596.7082,346.3817,592.2053,342.9576,597.3825,351.336" style="stroke: #A80036; stroke-width: 1.0;"/><text fill="#000000" font-family="sans-serif" font-size="13" lengthAdjust="spacingAndGlyphs" textLength="73" x="635.6006" y="340.5812">retryButton</text><!--MD5=[57841ce255363ee94bba8067b16d31bd]
link ButtonController to Button--><path codeLine="14" d="M619.1025,253.146 C620.3015,285.242 619.2775,321.771 616.0315,346.292 " fill="none" id="ButtonController-to-Button-3" style="stroke: #A80036; stroke-width: 1.0;"/><polygon fill="#A80036" points="615.3045,351.336,620.5468,342.9983,616.0174,346.3871,612.6286,341.8576,615.3045,351.336" style="stroke: #A80036; stroke-width: 1.0;"/><text fill="#000000" font-family="sans-serif" font-size="13" lengthAdjust="spacingAndGlyphs" textLength="58" x="625.0976" y="340.306">hitButton</text><!--MD5=[57841ce255363ee94bba8067b16d31bd]
link ButtonController to Button--><path codeLine="15" d="M644.4105,253.146 C647.9535,285.377 644.8985,322.077 635.2455,346.599 " fill="none" id="ButtonController-to-Button-4" style="stroke: #A80036; stroke-width: 1.0;"/><polygon fill="#A80036" points="633.2265,351.336,640.435,344.625,635.1869,346.7364,633.0756,341.4883,633.2265,351.336" style="stroke: #A80036; stroke-width: 1.0;"/><text fill="#000000" font-family="sans-serif" font-size="13" lengthAdjust="spacingAndGlyphs" textLength="122" x="617.3331" y="331.3705">doubleDownButton</text><!--MD5=[57841ce255363ee94bba8067b16d31bd]
link ButtonController to Button--><path codeLine="16" d="M669.7185,253.146 C676.6305,291.017 668.4175,335.058 645.0795,358.265 " fill="none" id="ButtonController-to-Button-5" style="stroke: #A80036; stroke-width: 1.0;"/><polygon fill="#A80036" points="641.2045,361.807,650.5468,358.6892,644.8957,358.4343,645.1505,352.7832,641.2045,361.807" style="stroke: #A80036; stroke-width: 1.0;"/><text fill="#000000" font-family="sans-serif" font-size="13" lengthAdjust="spacingAndGlyphs" textLength="104" x="635.2982" y="372.5136">surrenderButton</text><!--MD5=[706ef33513a7a07913bf2e8a9d990dd2]
link ButtonController to GameDirector--><path codeLine="17" d="M680.5265,253.146 C702.9885,273.709 727.4375,296.091 749.1515,315.969 " fill="none" id="ButtonController-to-GameDirector" style="stroke: #A80036; stroke-width: 1.0;"/><polygon fill="#A80036" points="752.8915,319.393,748.9563,310.3644,749.2043,316.0159,743.5529,316.2639,752.8915,319.393" style="stroke: #A80036; stroke-width: 1.0;"/><text fill="#000000" font-family="sans-serif" font-size="13" lengthAdjust="spacingAndGlyphs" textLength="88" x="651.5413" y="308.3173">gameDirector</text><!--MD5=[317bad7a78acd17139a9bf918474fded]
link ButtonController to PlayerController--><path codeLine="18" d="M639.4635,253.253 C647.1325,272.157 654.1785,292.99 658.0875,313 C668.7405,367.525 665.6035,382.955 658.0875,438 C655.2965,458.443 649.8355,480.38 644.2045,499.556 " fill="none" id="ButtonController-to-PlayerController" style="stroke: #A80036; stroke-width: 1.0;"/><polygon fill="#A80036" points="642.7715,504.369,649.1742,496.8853,644.1988,499.577,641.507,494.6016,642.7715,504.369" style="stroke: #A80036; stroke-width: 1.0;"/><text fill="#000000" font-family="sans-serif" font-size="13" lengthAdjust="spacingAndGlyphs" textLength="102" x="535.9458" y="493.3958">playerController</text><!--MD5=[cfed1be7730ec35ddc64e5c1741c490e]
link ButtonController to DealerController--><path codeLine="19" d="M523.3725,192.767 C437.1385,204.885 302.7155,235.618 216.0875,313 C158.6335,364.322 129.2055,451.708 115.7695,505.679 " fill="none" id="ButtonController-to-DealerController" style="stroke: #A80036; stroke-width: 1.0;"/><polygon fill="#A80036" points="114.5185,510.795,120.5409,503.002,115.7056,505.938,112.7696,501.1027,114.5185,510.795" style="stroke: #A80036; stroke-width: 1.0;"/><text fill="#000000" font-family="sans-serif" font-size="13" lengthAdjust="spacingAndGlyphs" textLength="102" x="6" y="500.0762">dealerController</text><!--MD5=[b4260d988d19d7b998bf4f58f1d7f130]
reverse link MonoBehaviour to CharacterBase--><path codeLine="28" d="M610.3305,54.222 C574.7895,67.214 534.8035,86.756 506.0875,115 C450.3585,169.812 417.4385,255.199 400.3335,312.918 " fill="none" id="MonoBehaviour-backto-CharacterBase" style="stroke: #A80036; stroke-width: 1.0;"/><polygon fill="none" points="608.3295,47.508,629.5185,47.664,612.8575,60.756,608.3295,47.508" style="stroke: #A80036; stroke-width: 1.0;"/><!--MD5=[c7994faa417062169cd374d4daf1464f]
link CharacterBase to Transform--><path codeLine="29" d="M406.4225,438.231 C416.6225,467.744 428.3295,501.619 436.3675,524.874 " fill="none" id="CharacterBase-to-Transform" style="stroke: #A80036; stroke-width: 1.0;"/><polygon fill="#A80036" points="438.0245,529.67,438.8659,519.8572,436.3916,524.9442,431.3046,522.4698,438.0245,529.67" style="stroke: #A80036; stroke-width: 1.0;"/><text fill="#000000" font-family="sans-serif" font-size="13" lengthAdjust="spacingAndGlyphs" textLength="128" x="292.5441" y="518.9328">characterTransform</text><!--MD5=[e5fc71768d8498a82036207b5927e167]
link CharacterBase to GameObject--><path codeLine="30" d="M536.0895,432.129 C541.8225,434.129 547.5035,436.092 553.0875,438 C636.4875,466.488 664.0475,457.049 742.0875,498 C756.7245,505.681 771.4155,516.432 783.6045,526.394 " fill="none" id="CharacterBase-to-GameObject" style="stroke: #A80036; stroke-width: 1.0;"/><polygon fill="#A80036" points="787.6385,529.737,783.2603,520.9148,783.7884,526.5469,778.1562,527.0749,787.6385,529.737" style="stroke: #A80036; stroke-width: 1.0;"/><text fill="#000000" font-family="sans-serif" font-size="13" lengthAdjust="spacingAndGlyphs" textLength="129" x="727.1579" y="518.8449">gameDirectorObject</text><!--MD5=[93b363de8dc2fd89584661009f0d31dd]
link CharacterBase to SpriteRenderer--><path codeLine="31" d="M356.0585,438.231 C342.1795,467.744 326.2495,501.619 315.3135,524.874 " fill="none" id="CharacterBase-to-SpriteRenderer" style="stroke: #A80036; stroke-width: 1.0;"/><polygon fill="#A80036" points="313.0585,529.67,320.5077,523.2272,315.1859,525.1452,313.2679,519.8234,313.0585,529.67" style="stroke: #A80036; stroke-width: 1.0;"/><text fill="#000000" font-family="sans-serif" font-size="13" lengthAdjust="spacingAndGlyphs" textLength="70" x="237.2014" y="518.9945">cardPrefab</text><!--MD5=[9dc28827a919a3806a1808faf2bf4c9f]
reverse link CharacterBase to DealerController--><path codeLine="37" d="M270.3115,449.109 C237.0115,470.176 201.7685,492.471 172.5055,510.983 " fill="none" id="CharacterBase-backto-DealerController" style="stroke: #A80036; stroke-width: 1.0;"/><polygon fill="none" points="266.8625,443.008,287.5065,438.231,274.3475,454.839,266.8625,443.008" style="stroke: #A80036; stroke-width: 1.0;"/><!--MD5=[5a85b256c1876bdbae264f38f2536358]
reverse link MonoBehaviour to GameDirector--><path codeLine="45" d="M706.9615,74.102 C728.7755,135.848 769.4675,251.03 793.6315,319.428 " fill="none" id="MonoBehaviour-backto-GameDirector" style="stroke: #A80036; stroke-width: 1.0;"/><polygon fill="none" points="700.2765,76.194,700.2145,55.004,713.4765,71.53,700.2765,76.194" style="stroke: #A80036; stroke-width: 1.0;"/><!--MD5=[1e8158af10c245fea9fc2df88bd31adf]
link GameDirector to GameObject--><path codeLine="46" d="M776.6015,431.861 C771.6605,462.759 774.0025,499.934 783.6275,524.882 " fill="none" id="GameDirector-to-GameObject" style="stroke: #A80036; stroke-width: 1.0;"/><polygon fill="#A80036" points="785.6495,529.703,785.8569,519.8563,783.7154,525.0922,778.4796,522.9508,785.6495,529.703" style="stroke: #A80036; stroke-width: 1.0;"/><text fill="#000000" font-family="sans-serif" font-size="13" lengthAdjust="spacingAndGlyphs" textLength="72" x="787.7364" y="519.0356">startButton</text><!--MD5=[1e8158af10c245fea9fc2df88bd31adf]
link GameDirector to GameObject--><path codeLine="47" d="M801.1595,431.861 C799.5505,462.63 800.3035,499.624 803.4175,524.569 " fill="none" id="GameDirector-to-GameObject-1" style="stroke: #A80036; stroke-width: 1.0;"/><polygon fill="#A80036" points="804.1175,529.703,806.8645,520.245,803.4418,524.7489,798.9379,521.3261,804.1175,529.703" style="stroke: #A80036; stroke-width: 1.0;"/><text fill="#000000" font-family="sans-serif" font-size="13" lengthAdjust="spacingAndGlyphs" textLength="78" x="724.4739" y="519.0035">standButton</text><!--MD5=[1e8158af10c245fea9fc2df88bd31adf]
link GameDirector to GameObject--><path codeLine="48" d="M825.7175,431.861 C827.4205,462.63 826.6235,499.624 823.3265,524.569 " fill="none" id="GameDirector-to-GameObject-2" style="stroke: #A80036; stroke-width: 1.0;"/><polygon fill="#A80036" points="822.5855,529.703,827.8325,521.3682,823.3012,524.7545,819.9149,520.2231,822.5855,529.703" style="stroke: #A80036; stroke-width: 1.0;"/><text fill="#000000" font-family="sans-serif" font-size="13" lengthAdjust="spacingAndGlyphs" textLength="73" x="820.6448" y="516.0131">retryButton</text><!--MD5=[1e8158af10c245fea9fc2df88bd31adf]
link GameDirector to GameObject--><path codeLine="49" d="M850.2745,431.861 C855.3115,462.759 852.9245,499.934 843.1145,524.882 " fill="none" id="GameDirector-to-GameObject-3" style="stroke: #A80036; stroke-width: 1.0;"/><polygon fill="#A80036" points="841.0535,529.703,848.268,522.9985,843.0181,525.1051,840.9114,519.8552,841.0535,529.703" style="stroke: #A80036; stroke-width: 1.0;"/><text fill="#000000" font-family="sans-serif" font-size="13" lengthAdjust="spacingAndGlyphs" textLength="89" x="803.4505" y="502.054">playerButtons</text><!--MD5=[3e7c94a78c4979bbbf9756b0ddb29207]
link GameDirector to PlayerController--><path codeLine="50" d="M754.6885,431.62 C731.2925,453.702 704.4665,479.022 681.3895,500.803 " fill="none" id="GameDirector-to-PlayerController" style="stroke: #A80036; stroke-width: 1.0;"/><polygon fill="#A80036" points="677.7185,504.268,687.0085,500.9976,681.354,500.8353,681.5162,495.1808,677.7185,504.268" style="stroke: #A80036; stroke-width: 1.0;"/><text fill="#000000" font-family="sans-serif" font-size="13" lengthAdjust="spacingAndGlyphs" textLength="102" x="692.1509" y="493.2806">playerController</text><!--MD5=[b5ade7133156a9995eef7c12d506cd52]
link GameDirector to DealerController--><path codeLine="51" d="M747.5115,406.581 C720.3375,417.97 688.1855,430.082 658.0875,438 C468.9195,487.764 409.5375,442.113 222.0875,498 C211.9925,501.01 201.6715,504.783 191.5525,508.934 " fill="none" id="GameDirector-to-DealerController" style="stroke: #A80036; stroke-width: 1.0;"/><polygon fill="#A80036" points="186.9185,510.867,196.7647,511.0947,191.5333,508.9425,193.6855,503.7111,186.9185,510.867" style="stroke: #A80036; stroke-width: 1.0;"/><text fill="#000000" font-family="sans-serif" font-size="13" lengthAdjust="spacingAndGlyphs" textLength="102" x="207.929" y="499.8418">dealerController</text><!--MD5=[d2c25fbeb857638bea9bd699b4472ebb]
link GameDirector to TrumpController--><path codeLine="52" d="M878.7095,427.078 C906.0455,448.147 937.9565,472.742 966.2865,494.577 " fill="none" id="GameDirector-to-TrumpController" style="stroke: #A80036; stroke-width: 1.0;"/><polygon fill="#A80036" points="970.4385,497.777,965.7529,489.1141,966.4786,494.7242,960.8685,495.4499,970.4385,497.777" style="stroke: #A80036; stroke-width: 1.0;"/><text fill="#000000" font-family="sans-serif" font-size="13" lengthAdjust="spacingAndGlyphs" textLength="101" x="854.5515" y="487.0843">trumpController</text><!--MD5=[d9b5344d464efdea66353ed97497ec69]
reverse link CharacterBase to PlayerController--><path codeLine="59" d="M485.5925,450.107 C510.5985,468.42 536.7865,487.599 559.6855,504.369 " fill="none" id="CharacterBase-backto-PlayerController" style="stroke: #A80036; stroke-width: 1.0;"/><polygon fill="none" points="481.3775,455.696,469.3775,438.231,489.6495,444.401,481.3775,455.696" style="stroke: #A80036; stroke-width: 1.0;"/><!--MD5=[2a864c89da5d5f40ed12febdaca56a46]
reverse link MonoBehaviour to TrumpController--><path codeLine="87" d="M731.4645,69.522 C745.0005,83.263 759.8225,99.302 772.0875,115 C872.7335,243.815 967.4575,412.283 1013.2975,497.889 " fill="none" id="MonoBehaviour-backto-TrumpController" style="stroke: #A80036; stroke-width: 1.0;"/><polygon fill="none" points="726.2135,74.174,716.9325,55.125,736.0675,64.228,726.2135,74.174" style="stroke: #A80036; stroke-width: 1.0;"/><!--MD5=[669a2efee067c7587e541964b6be5e19]
link TrumpController to Sprite--><path codeLine="88" d="M1085.5075,610.041 C1102.2175,631.217 1120.5775,654.4865 1134.3775,671.9842 " fill="none" id="TrumpController-to-Sprite" style="stroke: #A80036; stroke-width: 1.0;"/><polygon fill="#A80036" points="1137.7875,676.3036,1135.3569,666.7594,1134.692,672.377,1129.0744,671.7121,1137.7875,676.3036" style="stroke: #A80036; stroke-width: 1.0;"/><text fill="#000000" font-family="sans-serif" font-size="13" lengthAdjust="spacingAndGlyphs" textLength="30" x="1084.0612" y="676.5216">back</text><!--MD5=[63c8811546a2e38792258036d6a81238]
link TrumpController to List`1--><path codeLine="89" d="M997.1405,610.041 C979.7015,631.3964 960.5235,654.881 946.1945,672.4278 " fill="none" id="TrumpController-to-List`1" style="stroke: #A80036; stroke-width: 1.0;"/><polygon fill="#A80036" points="943.0295,676.3036,951.8202,671.8626,946.192,672.4308,945.6238,666.8026,943.0295,676.3036" style="stroke: #A80036; stroke-width: 1.0;"/><text fill="#000000" font-family="sans-serif" font-size="13" lengthAdjust="spacingAndGlyphs" textLength="121" x="811.3802" y="665.2653">orderCards&lt;Card&gt;</text><!--MD5=[7653e8e5986911648a4649070a1eafdd]
link TrumpController to Stack`1--><path codeLine="90" d="M1042.0875,610.041 C1042.0875,630.858 1042.0875,653.6983 1042.0875,671.0895 " fill="none" id="TrumpController-to-Stack`1" style="stroke: #A80036; stroke-width: 1.0;"/><polygon fill="#A80036" points="1042.0875,676.3036,1046.0875,667.3036,1042.0875,671.3036,1038.0875,667.3036,1042.0875,676.3036" style="stroke: #A80036; stroke-width: 1.0;"/><text fill="#000000" font-family="sans-serif" font-size="13" lengthAdjust="spacingAndGlyphs" textLength="133" x="1059.1281" y="665.2653">playingCards&lt;Card&gt;</text><!--MD5=[44b1925fe091f73725c12bf59418af06]
link Card to Sprite--><path codeLine="91" d="M1482.2675,576.528 C1408.0975,596.654 1298.2775,629.626 1207.0875,670 C1202.9675,671.8246 1198.7575,673.8951 1194.5975,676.0727 " fill="none" id="Card-to-Sprite" style="stroke: #A80036; stroke-width: 1.0;"/><polygon fill="#A80036" points="1190.1275,678.4711,1199.9501,677.7533,1194.5364,676.1128,1196.1768,670.699,1190.1275,678.4711" style="stroke: #A80036; stroke-width: 1.0;"/><text fill="#000000" font-family="sans-serif" font-size="13" lengthAdjust="spacingAndGlyphs" textLength="37" x="1190.5269" y="665.332">Sprite</text><!--MD5=[76ab92d751a1f168972f8efa1eed33bb]
reverse link Card to Hart--><path codeLine="92" d="M1641.8175,601.745 C1677.6375,624.155 1719.4675,650.3206 1750.8275,669.9389 " fill="none" id="Card-backto-Hart" style="stroke: #A80036; stroke-width: 1.0;"/><polygon fill="none" points="1638.0275,607.632,1624.7875,591.091,1645.4475,595.763,1638.0275,607.632" style="stroke: #A80036; stroke-width: 1.0;"/><!--MD5=[365717fd5a1be815b82ea7b62be19593]
reverse link Card to Spade--><path codeLine="93" d="M1670.8075,587.092 C1750.8075,611.846 1860.5875,645.8157 1938.4775,669.9161 " fill="none" id="Card-backto-Spade" style="stroke: #A80036; stroke-width: 1.0;"/><polygon fill="none" points="1668.6975,593.767,1651.6575,581.168,1672.8375,580.393,1668.6975,593.767" style="stroke: #A80036; stroke-width: 1.0;"/><!--MD5=[60b85ffdfcba2151d3594c2a071c648d]
reverse link Card to Clover--><path codeLine="94" d="M1490.3475,601.592 C1453.3775,624.036 1410.1575,650.276 1377.7775,669.9389 " fill="none" id="Card-backto-Clover" style="stroke: #A80036; stroke-width: 1.0;"/><polygon fill="none" points="1486.9175,595.487,1507.6475,591.091,1494.1775,607.454,1486.9175,595.487" style="stroke: #A80036; stroke-width: 1.0;"/><!--MD5=[64d67eef219d5a1bfb94f3e508a8f035]
reverse link Card to Daia--><path codeLine="95" d="M1567.0875,611.34 C1567.0875,631.2531 1567.0875,652.8626 1567.0875,669.7033 " fill="none" id="Card-backto-Daia" style="stroke: #A80036; stroke-width: 1.0;"/><polygon fill="none" points="1560.0875,611.091,1567.0875,591.091,1574.0875,611.091,1560.0875,611.091" style="stroke: #A80036; stroke-width: 1.0;"/><!--MD5=[61930b197aea85f1f50617b40677cdbe]
@startuml
class ButtonController {
    Start() : void
    StartButton() : void
    StandButton() : void
    RetryButton() : void
    HitButton() : void
    DoubleDownButton() : void
    SurrenderButton() : void
}
MonoBehaviour <|- - ButtonController
ButtonController - -> "startButton" Button
ButtonController - -> "standButton" Button
ButtonController - -> "retryButton" Button
ButtonController - -> "hitButton" Button
ButtonController - -> "doubleDownButton" Button
ButtonController - -> "surrenderButton" Button
ButtonController - -> "gameDirector" GameDirector
ButtonController - -> "playerController" PlayerController
ButtonController - -> "dealerController" DealerController
class CharacterBase {
    direction : float
    + <<virtual>> GameStart() : void
    + ResetCardsInfo() : void
    CharacterCardSpritesRemove() : void
    CharacterCardSpritesAdd(cardPos:Vector2) : void
    CharacterScoreSum() : bool
}
MonoBehaviour <|- - CharacterBase
CharacterBase - -> "characterTransform" Transform
CharacterBase - -> "gameDirectorObject" GameObject
CharacterBase - -> "cardPrefab" SpriteRenderer
class DealerController {
    + <<override>> GameStart() : void
    UpCard() : void
    + DrawDealer() : void
}
CharacterBase <|- - DealerController
class GameDirector {
    Start() : void
    + GameStart() : void
    + Stand() : void
    + ResetField() : void
    + Judgement() : void
}
MonoBehaviour <|- - GameDirector
GameDirector - -> "startButton" GameObject
GameDirector - -> "standButton" GameObject
GameDirector - -> "retryButton" GameObject
GameDirector - -> "playerButtons" GameObject
GameDirector - -> "playerController" PlayerController
GameDirector - -> "dealerController" DealerController
GameDirector - -> "trumpController" TrumpController
class PlayerController {
    + <<override>> GameStart() : void
    + Hit() : void
    + DoubleDown() : void
    + Surrender() : void
}
CharacterBase <|- - PlayerController
class TrumpController {
    + ResetCardsInfo() : void
    CreateCards() : void
    ShuffleCards() : void
    + DrawCard() : Card
    ConvertNumberForBlackjack(card:Card) : void
}
class Card {
    + Number : int <<get>> <<set>>
    + Suit : string <<get>> <<set>>
}
class Hart {
    + Hart(sprite:Sprite, number:int)
}
class Spade {
    + Spade(sprite:Sprite, number:int)
}
class Clover {
    + Clover(sprite:Sprite, number:int)
}
class Daia {
    + Daia(sprite:Sprite, number:int)
}
class "List`1"<T> {
}
class "Stack`1"<T> {
}
MonoBehaviour <|- - TrumpController
TrumpController - -> "back" Sprite
TrumpController - -> "orderCards<Card>" "List`1"
TrumpController - -> "playingCards<Card>" "Stack`1"
Card - -> "Sprite" Sprite
Card <|- - Hart
Card <|- - Spade
Card <|- - Clover
Card <|- - Daia
@enduml

PlantUML version 1.2020.20beta7(Unknown compile time)
(GPL source distribution)
Java Runtime: Java(TM) SE Runtime Environment
JVM: Java HotSpot(TM) 64-Bit Server VM
Default Encoding: UTF-8
Language: en
Country: US
--></g></svg>